<?xml version="1.0" encoding="UTF-8"?><svg id="Layer_1" xmlns="http://www.w3.org/2000/svg" viewBox="0 0 1479.86 1426.09"><defs><style>.cls-1{fill:#e21b23;}.cls-2{fill:#009cdb;}.cls-3{fill:#ffd456;}</style></defs><path class="cls-2" d="M455.57,295.06c0,58.68,11.34,105.73,34.05,146.18C397.89,492.23,0,713.33,0,713.33l120.5,200.82s152.09-44.59,229.6-67.31c-53.63,92.16-243.41,418.22-243.41,418.22l218.43,160.57s387.64-406.52,425.27-445.99c37.09,39.88,415.3,446.46,415.3,446.46l212.71-161.11s-180.48-321.36-231.07-411.45c73.13,20.78,212.63,60.45,212.63,60.45l119.92-199.86s-424.49-254.15-467.03-279.63c21.19-40.9,32.84-88.28,32.84-139.44C1045.67,132.35,913.33,0,750.62,0s-295.04,132.35-295.04,295.06ZM542.89,476.6l29.09-15.7-19.97-26.36c-27.48-36.3-39.72-79.32-39.72-139.48,0-131.44,106.92-238.36,238.33-238.36s238.35,106.92,238.35,238.36c0,50.93-13.05,97.18-37.77,133.78l-16.79,24.82s423.88,253.79,467.62,279.98c-17.92,29.87-54.06,90.09-68.36,113.93-35.29-10.02-303.18-86.18-303.18-86.18,0,0,252.32,449.16,274.26,488.25-26.81,20.31-104.81,79.39-132.46,100.32-32.06-34.46-421.42-453.01-421.42-453.01,0,0-400.66,420.2-432.38,453.45-27.51-20.22-109.15-80.24-137.17-100.84,23.23-39.91,289.35-497.17,289.35-497.17,0,0-288.19,84.5-324.1,95.03-14.28-23.82-49.54-82.59-67.79-112.99,45.96-25.54,458.37-254.74,458.37-254.74-.28.17,5.73-3.08,5.73-3.08Z"/><path class="cls-3" d="M568.84,387.38c0,33.01,5.63,60.22,17.4,83.75-62.54,34.77-289.01,160.63-289.01,160.63l77.47,129.09s78.25-22.31,128.02-36.49c-40.33,67.31-142.26,237.38-142.26,237.38l137.92,101.39s221.21-201.97,249.23-227.55c27.92,25.67,247.83,227.8,247.83,227.8l134.03-101.56s-94.2-167.67-131.19-233.54c44.85,12.75,114.52,32.55,114.52,32.55l77.04-128.41s-241.96-144.89-275.85-165.19c11.13-23.78,16.97-50.95,16.97-79.85,0-99.84-81.21-181.09-181.07-181.09s-181.07,81.24-181.07,181.09ZM630.47,500.7l24.45-13.05-16.75-22.07c-15.27-20.16-22.08-44.27-22.08-78.2,0-73.8,60.04-133.83,133.82-133.83s133.82,60.04,133.82,133.83c0,28.69-7.29,54.66-21.11,75.14l-13.97,20.67s241.55,144.63,276.36,165.47c-11.66,19.44-24.59,40.98-34.09,56.82-27.32-7.77-189.98-54.01-189.98-54.01,0,0,149.6,266.34,167.16,297.56-18.87,14.28-51.53,39.04-69.73,52.83-25.78-23.68-250.63-230.39-250.63-230.39,0,0-227.14,207.39-252.59,230.63-18.25-13.42-52.19-38.36-72.04-52.97,19.19-32.02,181.57-303,181.57-303,0,0-180.1,51.36-208.1,59.33-9.4-15.67-21.9-36.48-33.68-56.14,36.55-20.31,264.27-146.87,264.33-146.9l3.26-1.73Z"/><path class="cls-1" d="M741.88,536.9c-6.68-60.02-83.35-20.02-90.05,33.35-10.87,86.9,103.2,101.87,157.88,143.67,29.4-57.93,82.9-111.31,61.62-181.48-12.66-41.73-65.53-73.15-100.35-38.89-12.51,12.32-17.78,40.85-25.78,43.35"/></svg>